<mxfile host="app.diagrams.net" agent="Mozilla/5.0 (Windows NT 10.0; Win64; x64) AppleWebKit/537.36 (KHTML, like Gecko) Chrome/133.0.0.0 Safari/537.36" version="26.0.16">
  <diagram name="Page-1" id="LyAcxEIUK0LsX1fmSSqz">
    <mxGraphModel dx="794" dy="446" grid="1" gridSize="10" guides="1" tooltips="1" connect="1" arrows="1" fold="1" page="1" pageScale="1" pageWidth="827" pageHeight="1169" math="0" shadow="0">
      <root>
        <mxCell id="0" />
        <mxCell id="1" parent="0" />
        <UserObject label="" plantUmlData="{&#xa;  &quot;data&quot;: &quot;import streamlit as st\nfrom streamlit_webrtc import webrtc_streamer\nimport av\nimport cv2\nimport numpy as np\nimport mediapipe as mp\nfrom keras.models import load_model\nimport webbrowser\nimport os\nimport pandas as pd\n\n# Sample user credentials\nUSER_CREDENTIALS = {\&quot;user1\&quot;: \&quot;password1\&quot;, \&quot;user2\&quot;: \&quot;password2\&quot;}\n\n# Paths for model and labels\nmodel_path = os.path.join(os.path.abspath(os.path.join(os.getcwd(), os.pardir)), \&quot;model.h5\&quot;)\nlabels_path = os.path.join(os.path.abspath(os.path.join(os.getcwd(), os.pardir)), \&quot;labels.npy\&quot;)\n\n# Load model and labels\nmodel = load_model(model_path)\nlabel = np.load(labels_path)\n\n# Mediapipe setup\nholistic = mp.solutions.holistic\nhands = mp.solutions.hands\nholis = holistic.Holistic()\ndrawing = mp.solutions.drawing_utils\n\n# Inject CSS for styling\nst.markdown(\n    \&quot;\&quot;\&quot;\n    &lt;style&gt;\n    .main {\n        background-color: #f7f7f7;\n    }\n    h1 {\n        color: #1f77b4;\n        text-align: center;\n        font-family: &#39;Arial&#39;, sans-serif;\n    }\n    .stButton &gt; button {\n        background-color: #4CAF50;\n        color: white;\n        border: none;\n        border-radius: 5px;\n        padding: 10px 20px;\n        font-size: 16px;\n    }\n    .stButton &gt; button:hover {\n        background-color: #45a049;\n        cursor: pointer;\n    }\n    .stTextInput &gt; div &gt; input {\n        border: 2px solid #1f77b4;\n        border-radius: 5px;\n        padding: 5px;\n        font-size: 14px;\n    }\n    .stTextInput &gt; div &gt; input:focus {\n        outline: none;\n        border-color: #45a049;\n    }\n    &lt;/style&gt;\n    \&quot;\&quot;\&quot;,\n    unsafe_allow_html=True,\n)\n\n# Function to display login page\ndef login():\n    st.title(\&quot;Login\&quot;)\n    username = st.text_input(\&quot;Username\&quot;, placeholder=\&quot;Enter your username\&quot;)\n    password = st.text_input(\&quot;Password\&quot;, type=\&quot;password\&quot;, placeholder=\&quot;Enter your password\&quot;)\n    login_button = st.button(\&quot;Login\&quot;)\n\n    if login_button:\n        if username in USER_CREDENTIALS and USER_CREDENTIALS[username] == password:\n            st.session_state[\&quot;authenticated\&quot;] = True\n            st.success(\&quot;Login successful!\&quot;)\n        else:\n            st.error(\&quot;Invalid username or password\&quot;)\n\n# Function to display the main application\ndef main_app():\n    st.header(\&quot;í ¼í¾µ Emotion-Based Music Recommender í ¼í¾µ\&quot;)\n    \n    if \&quot;run\&quot; not in st.session_state:\n        st.session_state[\&quot;run\&quot;] = \&quot;true\&quot;\n\n    try:\n        emotion = np.load(\&quot;emotion.npy\&quot;)[0]\n    except:\n        emotion = \&quot;\&quot;\n\n    if not emotion:\n        st.session_state[\&quot;run\&quot;] = \&quot;true\&quot;\n    else:\n        st.session_state[\&quot;run\&quot;] = \&quot;false\&quot;\n\n    class EmotionProcessor:\n        def recv(self, frame):\n            frm = frame.to_ndarray(format=\&quot;bgr24\&quot;)\n\n            frm = cv2.flip(frm, 1)\n            res = holis.process(cv2.cvtColor(frm, cv2.COLOR_BGR2RGB))\n            lst = []\n\n            if res.face_landmarks:\n                for i in res.face_landmarks.landmark:\n                    lst.append(i.x - res.face_landmarks.landmark[1].x)\n                    lst.append(i.y - res.face_landmarks.landmark[1].y)\n\n                if res.left_hand_landmarks:\n                    for i in res.left_hand_landmarks.landmark:\n                        lst.append(i.x - res.left_hand_landmarks.landmark[8].x)\n                        lst.append(i.y - res.left_hand_landmarks.landmark[8].y)\n                else:\n                    lst.extend([0.0] * 42)\n\n                if res.right_hand_landmarks:\n                    for i in res.right_hand_landmarks.landmark:\n                        lst.append(i.x - res.right_hand_landmarks.landmark[8].x)\n                        lst.append(i.y - res.right_hand_landmarks.landmark[8].y)\n                else:\n                    lst.extend([0.0] * 42)\n\n                lst = np.array(lst).reshape(1, -1)\n                pred = label[np.argmax(model.predict(lst))]\n\n                print(pred)\n                cv2.putText(frm, pred, (50, 50), cv2.FONT_ITALIC, 1, (255, 0, 0), 2)\n                np.save(\&quot;emotion.npy\&quot;, np.array([pred]))\n\n            drawing.draw_landmarks(frm, res.face_landmarks, holistic.FACEMESH_TESSELATION,\n                                   landmark_drawing_spec=drawing.DrawingSpec(color=(0, 0, 255), thickness=-1, circle_radius=1),\n                                   connection_drawing_spec=drawing.DrawingSpec(thickness=1))\n            drawing.draw_landmarks(frm, res.left_hand_landmarks, hands.HAND_CONNECTIONS)\n            drawing.draw_landmarks(frm, res.right_hand_landmarks, hands.HAND_CONNECTIONS)\n\n            return av.VideoFrame.from_ndarray(frm, format=\&quot;bgr24\&quot;)\n\n    lang = st.text_input(\&quot;Language\&quot;, placeholder=\&quot;e.g., English, Hindi, etc.\&quot;)\n    singer = st.text_input(\&quot;Singer\&quot;, placeholder=\&quot;e.g., Arijit Singh, Taylor Swift, etc.\&quot;)\n\n    if lang and singer and st.session_state[\&quot;run\&quot;] != \&quot;false\&quot;:\n        webrtc_streamer(key=\&quot;key\&quot;, desired_playing_state=True, video_processor_factory=EmotionProcessor)\n\n    btn = st.button(\&quot;Recommend me songs\&quot;)\n\n    if btn:\n        if not emotion:\n            st.warning(\&quot;Please let me capture your emotion first.\&quot;)\n            st.session_state[\&quot;run\&quot;] = \&quot;true\&quot;\n        else:\n            query = f\&quot;{lang} {emotion} song {singer}\&quot;\n            st.info(f\&quot;Searching for: {query}\&quot;)\n            webbrowser.open(f\&quot;https://www.youtube.com/results?search_query={query}\&quot;)\n            np.save(\&quot;emotion.npy\&quot;, np.array([\&quot;\&quot;]))\n            st.session_state[\&quot;run\&quot;] = \&quot;true\&quot;\n\n# Function to display feedback page\ndef feedback_page():\n    st.header(\&quot;í ½í²¬ Feedback\&quot;)\n    name = st.text_input(\&quot;Your Name\&quot;, placeholder=\&quot;Enter your name\&quot;)\n    email = st.text_input(\&quot;Your Email\&quot;, placeholder=\&quot;Enter your email\&quot;)\n    feedback = st.text_area(\&quot;Your Feedback\&quot;, placeholder=\&quot;Write your feedback here...\&quot;)\n    submit_btn = st.button(\&quot;Submit Feedback\&quot;)\n\n    if submit_btn:\n        if name and email and feedback:\n            # Save feedback to a CSV file\n            feedback_data = {\&quot;Name\&quot;: [name], \&quot;Email\&quot;: [email], \&quot;Feedback\&quot;: [feedback]}\n            feedback_df = pd.DataFrame(feedback_data)\n            feedback_file = \&quot;feedback.csv\&quot;\n\n            if os.path.exists(feedback_file):\n                feedback_df.to_csv(feedback_file, mode=&#39;a&#39;, header=False, index=False)\n            else:\n                feedback_df.to_csv(feedback_file, index=False)\n\n            st.success(\&quot;Thank you for your feedback!\&quot;)\n        else:\n            st.error(\&quot;Please fill out all fields.\&quot;)\n\n# Main flow\nif \&quot;authenticated\&quot; not in st.session_state:\n    st.session_state[\&quot;authenticated\&quot;] = False\n\nmenu = [\&quot;Login\&quot;, \&quot;Main App\&quot;, \&quot;Feedback\&quot;]\nchoice = st.sidebar.selectbox(\&quot;Menu\&quot;, menu)\n\nif choice == \&quot;Login\&quot; and not st.session_state[\&quot;authenticated\&quot;]:\n    login()\nelif choice == \&quot;Main App\&quot; and st.session_state[\&quot;authenticated\&quot;]:\n    main_app()\nelif choice == \&quot;Feedback\&quot; and st.session_state[\&quot;authenticated\&quot;]:\n    feedback_page()\nelse:\n    st.warning(\&quot;Please log in to access this feature.\&quot;)\n\n##################y\n# cd############################################\n# import streamlit as st\n# from streamlit_webrtc import webrtc_streamer\n# import av\n# import cv2\n# import numpy as np\n# import mediapipe as mp\n# from keras.models import load_model\n# import webbrowser\n# import os\n\n# # Sample user credentials\n# USER_CREDENTIALS = {\&quot;user1\&quot;: \&quot;password1\&quot;, \&quot;user2\&quot;: \&quot;password2\&quot;}\n\n# # Paths for model and labels\n# model_path = os.path.join(os.path.abspath(os.path.join(os.getcwd(), os.pardir)), \&quot;model.h5\&quot;)\n# labels_path = os.path.join(os.path.abspath(os.path.join(os.getcwd(), os.pardir)), \&quot;labels.npy\&quot;)\n\n# # Load model and labels\n# model = load_model(model_path)\n# label = np.load(labels_path)\n\n# # Mediapipe setup\n# holistic = mp.solutions.holistic\n# hands = mp.solutions.hands\n# holis = holistic.Holistic()\n# drawing = mp.solutions.drawing_utils\n\n# # Inject CSS for styling\n# st.markdown(\n#     \&quot;\&quot;\&quot;\n#     &lt;style&gt;\n#     .main {\n#         background-color: #f7f7f7;\n#     }\n#     h1 {\n#         color: #1f77b4;\n#         text-align: center;\n#         font-family: &#39;Arial&#39;, sans-serif;\n#     }\n#     .stButton &gt; button {\n#         background-color: #4CAF50;\n#         color: white;\n#         border: none;\n#         border-radius: 5px;\n#         padding: 10px 20px;\n#         font-size: 16px;\n#     }\n#     .stButton &gt; button:hover {\n#         background-color: #45a049;\n#         cursor: pointer;\n#     }\n#     .stTextInput &gt; div &gt; input {\n#         border: 2px solid #1f77b4;\n#         border-radius: 5px;\n#         padding: 5px;\n#         font-size: 14px;\n#     }\n#     .stTextInput &gt; div &gt; input:focus {\n#         outline: none;\n#         border-color: #45a049;\n#     }\n#     &lt;/style&gt;\n#     \&quot;\&quot;\&quot;,\n#     unsafe_allow_html=True,\n# )\n\n# # Function to display login page\n# def login():\n#     st.title(\&quot;Login\&quot;)\n#     username = st.text_input(\&quot;Username\&quot;, placeholder=\&quot;Enter your username\&quot;)\n#     password = st.text_input(\&quot;Password\&quot;, type=\&quot;password\&quot;, placeholder=\&quot;Enter your password\&quot;)\n#     login_button = st.button(\&quot;Login\&quot;)\n\n#     if login_button:\n#         if username in USER_CREDENTIALS and USER_CREDENTIALS[username] == password:\n#             st.session_state[\&quot;authenticated\&quot;] = True\n#             st.success(\&quot;Login successful!\&quot;)\n#         else:\n#             st.error(\&quot;Invalid username or password\&quot;)\n\n# # Function to display the main application\n# def main_app():\n#     st.header(\&quot;í ¼í¾µ Emotion-Based Music Recommender í ¼í¾µ\&quot;)\n    \n#     if \&quot;run\&quot; not in st.session_state:\n#         st.session_state[\&quot;run\&quot;] = \&quot;true\&quot;\n\n#     try:\n#         emotion = np.load(\&quot;emotion.npy\&quot;)[0]\n#     except:\n#         emotion = \&quot;\&quot;\n\n#     if not emotion:\n#         st.session_state[\&quot;run\&quot;] = \&quot;true\&quot;\n#     else:\n#         st.session_state[\&quot;run\&quot;] = \&quot;false\&quot;\n\n#     class EmotionProcessor:\n#         def recv(self, frame):\n#             frm = frame.to_ndarray(format=\&quot;bgr24\&quot;)\n\n#             frm = cv2.flip(frm, 1)\n#             res = holis.process(cv2.cvtColor(frm, cv2.COLOR_BGR2RGB))\n#             lst = []\n\n#             if res.face_landmarks:\n#                 for i in res.face_landmarks.landmark:\n#                     lst.append(i.x - res.face_landmarks.landmark[1].x)\n#                     lst.append(i.y - res.face_landmarks.landmark[1].y)\n\n#                 if res.left_hand_landmarks:\n#                     for i in res.left_hand_landmarks.landmark:\n#                         lst.append(i.x - res.left_hand_landmarks.landmark[8].x)\n#                         lst.append(i.y - res.left_hand_landmarks.landmark[8].y)\n#                 else:\n#                     lst.extend([0.0] * 42)\n\n#                 if res.right_hand_landmarks:\n#                     for i in res.right_hand_landmarks.landmark:\n#                         lst.append(i.x - res.right_hand_landmarks.landmark[8].x)\n#                         lst.append(i.y - res.right_hand_landmarks.landmark[8].y)\n#                 else:\n#                     lst.extend([0.0] * 42)\n\n#                 lst = np.array(lst).reshape(1, -1)\n#                 pred = label[np.argmax(model.predict(lst))]\n\n#                 print(pred)\n#                 cv2.putText(frm, pred, (50, 50), cv2.FONT_ITALIC, 1, (255, 0, 0), 2)\n#                 np.save(\&quot;emotion.npy\&quot;, np.array([pred]))\n\n#             drawing.draw_landmarks(frm, res.face_landmarks, holistic.FACEMESH_TESSELATION,\n#                                    landmark_drawing_spec=drawing.DrawingSpec(color=(0, 0, 255), thickness=-1, circle_radius=1),\n#                                    connection_drawing_spec=drawing.DrawingSpec(thickness=1))\n#             drawing.draw_landmarks(frm, res.left_hand_landmarks, hands.HAND_CONNECTIONS)\n#             drawing.draw_landmarks(frm, res.right_hand_landmarks, hands.HAND_CONNECTIONS)\n\n#             return av.VideoFrame.from_ndarray(frm, format=\&quot;bgr24\&quot;)\n\n#     lang = st.text_input(\&quot;Language\&quot;, placeholder=\&quot;e.g., English, Hindi, etc.\&quot;)\n#     singer = st.text_input(\&quot;Singer\&quot;, placeholder=\&quot;e.g., Arijit Singh, Taylor Swift, etc.\&quot;)\n\n#     if lang and singer and st.session_state[\&quot;run\&quot;] != \&quot;false\&quot;:\n#         webrtc_streamer(key=\&quot;key\&quot;, desired_playing_state=True, video_processor_factory=EmotionProcessor)\n\n#     btn = st.button(\&quot;Recommend me songs\&quot;)\n\n#     if btn:\n#         if not emotion:\n#             st.warning(\&quot;Please let me capture your emotion first.\&quot;)\n#             st.session_state[\&quot;run\&quot;] = \&quot;true\&quot;\n#         else:\n#             query = f\&quot;{lang} {emotion} song {singer}\&quot;\n#             st.info(f\&quot;Searching for: {query}\&quot;)\n#             webbrowser.open(f\&quot;https://www.youtube.com/results?search_query={query}\&quot;)\n#             np.save(\&quot;emotion.npy\&quot;, np.array([\&quot;\&quot;]))\n#             st.session_state[\&quot;run\&quot;] = \&quot;true\&quot;\n\n# # Main flow\n# if \&quot;authenticated\&quot; not in st.session_state:\n#     st.session_state[\&quot;authenticated\&quot;] = False\n\n# if not st.session_state[\&quot;authenticated\&quot;]:\n#     login()\n# else:\n#     main_app()\n\n#################################################################\n################################################################\n# import streamlit as st\n# from streamlit_webrtc import webrtc_streamer\n# import av\n# import cv2\n# import numpy as np\n# import mediapipe as mp\n# from keras.models import load_model\n# import webbrowser\n# import os\n\n# # Sample user credentials\n# USER_CREDENTIALS = {\&quot;user1\&quot;: \&quot;password1\&quot;, \&quot;user2\&quot;: \&quot;password2\&quot;}\n\n# # Paths for model and labels\n# model_path = os.path.join(os.path.abspath(os.path.join(os.getcwd(), os.pardir)), \&quot;model.h5\&quot;)\n# labels_path = os.path.join(os.path.abspath(os.path.join(os.getcwd(), os.pardir)), \&quot;labels.npy\&quot;)\n\n# # Load model and labels\n# model = load_model(model_path)\n# label = np.load(labels_path)\n\n# # Mediapipe setup\n# holistic = mp.solutions.holistic\n# hands = mp.solutions.hands\n# holis = holistic.Holistic()\n# drawing = mp.solutions.drawing_utils\n\n# # Function to display login page\n# def login():\n#     st.title(\&quot;Login\&quot;)\n#     username = st.text_input(\&quot;Username\&quot;)\n#     password = st.text_input(\&quot;Password\&quot;, type=\&quot;password\&quot;)\n#     login_button = st.button(\&quot;Login\&quot;)\n\n#     if login_button:\n#         if username in USER_CREDENTIALS and USER_CREDENTIALS[username] == password:\n#             st.session_state[\&quot;authenticated\&quot;] = True\n#             st.success(\&quot;Login successful!\&quot;)\n#         else:\n#             st.error(\&quot;Invalid username or password\&quot;)\n\n# # Function to display the main application\n# def main_app():\n#     st.header(\&quot;Emotion Based Music Recommender\&quot;)\n    \n#     if \&quot;run\&quot; not in st.session_state:\n#         st.session_state[\&quot;run\&quot;] = \&quot;true\&quot;\n\n#     try:\n#         emotion = np.load(\&quot;emotion.npy\&quot;)[0]\n#     except:\n#         emotion = \&quot;\&quot;\n\n#     if not emotion:\n#         st.session_state[\&quot;run\&quot;] = \&quot;true\&quot;\n#     else:\n#         st.session_state[\&quot;run\&quot;] = \&quot;false\&quot;\n\n#     class EmotionProcessor:\n#         def recv(self, frame):\n#             frm = frame.to_ndarray(format=\&quot;bgr24\&quot;)\n\n#             frm = cv2.flip(frm, 1)\n#             res = holis.process(cv2.cvtColor(frm, cv2.COLOR_BGR2RGB))\n#             lst = []\n\n#             if res.face_landmarks:\n#                 for i in res.face_landmarks.landmark:\n#                     lst.append(i.x - res.face_landmarks.landmark[1].x)\n#                     lst.append(i.y - res.face_landmarks.landmark[1].y)\n\n#                 if res.left_hand_landmarks:\n#                     for i in res.left_hand_landmarks.landmark:\n#                         lst.append(i.x - res.left_hand_landmarks.landmark[8].x)\n#                         lst.append(i.y - res.left_hand_landmarks.landmark[8].y)\n#                 else:\n#                     lst.extend([0.0] * 42)\n\n#                 if res.right_hand_landmarks:\n#                     for i in res.right_hand_landmarks.landmark:\n#                         lst.append(i.x - res.right_hand_landmarks.landmark[8].x)\n#                         lst.append(i.y - res.right_hand_landmarks.landmark[8].y)\n#                 else:\n#                     lst.extend([0.0] * 42)\n\n#                 lst = np.array(lst).reshape(1, -1)\n#                 pred = label[np.argmax(model.predict(lst))]\n\n#                 print(pred)\n#                 cv2.putText(frm, pred, (50, 50), cv2.FONT_ITALIC, 1, (255, 0, 0), 2)\n#                 np.save(\&quot;emotion.npy\&quot;, np.array([pred]))\n\n#             drawing.draw_landmarks(frm, res.face_landmarks, holistic.FACEMESH_TESSELATION,\n#                                    landmark_drawing_spec=drawing.DrawingSpec(color=(0, 0, 255), thickness=-1, circle_radius=1),\n#                                    connection_drawing_spec=drawing.DrawingSpec(thickness=1))\n#             drawing.draw_landmarks(frm, res.left_hand_landmarks, hands.HAND_CONNECTIONS)\n#             drawing.draw_landmarks(frm, res.right_hand_landmarks, hands.HAND_CONNECTIONS)\n\n#             return av.VideoFrame.from_ndarray(frm, format=\&quot;bgr24\&quot;)\n\n#     lang = st.text_input(\&quot;Language\&quot;)\n#     singer = st.text_input(\&quot;Singer\&quot;)\n\n#     if lang and singer and st.session_state[\&quot;run\&quot;] != \&quot;false\&quot;:\n#         webrtc_streamer(key=\&quot;key\&quot;, desired_playing_state=True, video_processor_factory=EmotionProcessor)\n\n#     btn = st.button(\&quot;Recommend me songs\&quot;)\n\n#     if btn:\n#         if not emotion:\n#             st.warning(\&quot;Please let me capture your emotion first.\&quot;)\n#             st.session_state[\&quot;run\&quot;] = \&quot;true\&quot;\n#         else:\n#             query = f\&quot;{lang} {emotion} song {singer}\&quot;\n#             st.info(f\&quot;Searching for: {query}\&quot;)\n#             webbrowser.open(f\&quot;https://www.youtube.com/results?search_query={query}\&quot;)\n#             np.save(\&quot;emotion.npy\&quot;, np.array([\&quot;\&quot;]))\n#             st.session_state[\&quot;run\&quot;] = \&quot;true\&quot;\n\n# # Main flow\n# if \&quot;authenticated\&quot; not in st.session_state:\n#     st.session_state[\&quot;authenticated\&quot;] = False\n\n# if not st.session_state[\&quot;authenticated\&quot;]:\n#     login()\n# else:\n#     main_app()\n####################################################################\n####################################################################\n# import streamlit as st\n# from streamlit_webrtc import webrtc_streamer\n# import av\n# import cv2 \n# import numpy as np \n# import mediapipe as mp \n# from keras.models import load_model\n# import webbrowser\n# import os\n\n# # Paths for model and labels\n# model_path = os.path.join(os.path.abspath(os.path.join(os.getcwd(), os.pardir)), \&quot;model.h5\&quot;)\n# labels_path = os.path.join(os.path.abspath(os.path.join(os.getcwd(), os.pardir)), \&quot;labels.npy\&quot;)\n\n# # Folder path for saving emotion.npy\n\n# # Load model and labels\n# model  = load_model(model_path)\n# label = np.load(labels_path)\n\n# # Mediapipe setup\n# holistic = mp.solutions.holistic\n# hands = mp.solutions.hands\n# holis = holistic.Holistic()\n# drawing = mp.solutions.drawing_utils\n\n# # Streamlit setup\n# st.header(\&quot;Emotion Based Music Recommender\&quot;)\n# if \&quot;run\&quot; not in st.session_state:\n#     st.session_state[\&quot;run\&quot;] = \&quot;true\&quot;\n\n# try:\n#     emotion = np.load(\&quot;emotion.npy\&quot;)[0]\n# except:\n#     emotion = \&quot;\&quot;\n\n# if not(emotion):\n#     st.session_state[\&quot;run\&quot;] = \&quot;true\&quot;\n# else:\n#     st.session_state[\&quot;run\&quot;] = \&quot;false\&quot;\n    \n\n# class EmotionProcessor:\n#     def recv(self, frame):\n#         frm = frame.to_ndarray(format=\&quot;bgr24\&quot;)\n\n#         ##############################\n#         frm = cv2.flip(frm, 1)\n\n#         res = holis.process(cv2.cvtColor(frm, cv2.COLOR_BGR2RGB))\n\n#         lst = []\n\n#         if res.face_landmarks:\n#             for i in res.face_landmarks.landmark:\n#                 lst.append(i.x - res.face_landmarks.landmark[1].x)\n#                 lst.append(i.y - res.face_landmarks.landmark[1].y)\n\n#             if res.left_hand_landmarks:\n#                 for i in res.left_hand_landmarks.landmark:\n#                     lst.append(i.x - res.left_hand_landmarks.landmark[8].x)\n#                     lst.append(i.y - res.left_hand_landmarks.landmark[8].y)\n#             else:\n#                 for i in range(42):\n#                     lst.append(0.0)\n\n#             if res.right_hand_landmarks:\n#                 for i in res.right_hand_landmarks.landmark:\n#                     lst.append(i.x - res.right_hand_landmarks.landmark[8].x)\n#                     lst.append(i.y - res.right_hand_landmarks.landmark[8].y)\n#             else:\n#                 for i in range(42):\n#                     lst.append(0.0)\n\n#             lst = np.array(lst).reshape(1, -1)\n\n#             pred = label[np.argmax(model.predict(lst))]\n\n#             print(pred)\n#             cv2.putText(frm, pred, (50, 50), cv2.FONT_ITALIC, 1, (255, 0, 0), 2)\n\n#             # Save the emotion prediction to the defined file path\n#             np.save(\&quot;emotion.npy\&quot;, np.array([pred]))\n\n#         drawing.draw_landmarks(frm, res.face_landmarks, holistic.FACEMESH_TESSELATION,\n#                                landmark_drawing_spec=drawing.DrawingSpec(color=(0, 0, 255), thickness=-1, circle_radius=1),\n#                                connection_drawing_spec=drawing.DrawingSpec(thickness=1))\n#         drawing.draw_landmarks(frm, res.left_hand_landmarks, hands.HAND_CONNECTIONS)\n#         drawing.draw_landmarks(frm, res.right_hand_landmarks, hands.HAND_CONNECTIONS)\n\n#         ##############################\n\n#         return av.VideoFrame.from_ndarray(frm, format=\&quot;bgr24\&quot;)\n\n# # Inputs for language and singer\n# lang = st.text_input(\&quot;Language\&quot;)\n# singer = st.text_input(\&quot;singer\&quot;)\n\n# # Start the webrtc streamer if the inputs are provided\n# if lang and singer and st.session_state[\&quot;run\&quot;] != \&quot;false\&quot;:\n#     webrtc_streamer(key=\&quot;key\&quot;, desired_playing_state=True, video_processor_factory=EmotionProcessor)\n\n# # Button to recommend songs\n# btn = st.button(\&quot;Recommend me songs\&quot;)\n\n# if btn:\n#     if not emotion:\n#         st.warning(\&quot;Please let me capture your emotion first.\&quot;)\n#         st.session_state[\&quot;run\&quot;] = \&quot;true\&quot;\n#     else:\n#         # Construct and open the YouTube query\n#         query = f\&quot;{lang} {emotion} song {singer}\&quot;\n#         st.info(f\&quot;Searching for: {query}\&quot;)\n#         webbrowser.open(f\&quot;https://www.youtube.com/results?search_query={query}\&quot;)\n        \n#         # Reset emotion and session state\n        # np.save(\&quot;emotion.npy\&quot;, np.array([\&quot;\&quot;]))  # Clear saved emotion\n        # st.session_state[\&quot;run\&quot;] = \&quot;true\&quot;  # Enable fresh capture\n\n\n&quot;,&#xa;  &quot;format&quot;: &quot;svg&quot;&#xa;}" id="c-mZ5FdJbWtEzwMXOex2-2">
          <mxCell style="shape=image;noLabel=1;verticalAlign=top;aspect=fixed;imageAspect=0;image=data:image/svg+xml,PD94bWwgdmVyc2lvbj0iMS4wIiBlbmNvZGluZz0idXMtYXNjaWkiIHN0YW5kYWxvbmU9Im5vIj8+PHN2ZyB4bWxucz0iaHR0cDovL3d3dy53My5vcmcvMjAwMC9zdmciIHhtbG5zOnhsaW5rPSJodHRwOi8vd3d3LnczLm9yZy8xOTk5L3hsaW5rIiBjb250ZW50U3R5bGVUeXBlPSJ0ZXh0L2NzcyIgaGVpZ2h0PSIxNTFweCIgcHJlc2VydmVBc3BlY3RSYXRpbz0ibm9uZSIgc3R5bGU9IndpZHRoOjM5NHB4O2hlaWdodDoxNTFweDtiYWNrZ3JvdW5kOiMwMDAwMDA7IiB2ZXJzaW9uPSIxLjEiIHZpZXdCb3g9IjAgMCAzOTQgMTUxIiB3aWR0aD0iMzk0cHgiIHpvb21BbmRQYW49Im1hZ25pZnkiPjxkZWZzLz48Zz48cmVjdCBmaWxsPSIjMEQwRDExIiBoZWlnaHQ9IjEiIHN0eWxlPSJzdHJva2U6IzBEMEQxMTtzdHJva2Utd2lkdGg6MS4wOyIgd2lkdGg9IjEiIHg9IjAiIHk9IjAiLz48dGV4dCBmaWxsPSIjMzNGRjAyIiBmb250LWZhbWlseT0ic2Fucy1zZXJpZiIgZm9udC1zaXplPSIxMiIgZm9udC1zdHlsZT0iaXRhbGljIiBmb250LXdlaWdodD0iYm9sZCIgbGVuZ3RoQWRqdXN0PSJzcGFjaW5nIiB0ZXh0TGVuZ3RoPSIxMDciIHg9IjUiIHk9IjE3Ij5QbGFudFVNTCAxLjIwMjQuNDwvdGV4dD48dGV4dCBmaWxsPSIjMzNGRjAyIiBmb250LWZhbWlseT0ic2Fucy1zZXJpZiIgZm9udC1zaXplPSIxMiIgZm9udC1zdHlsZT0iaXRhbGljIiBmb250LXdlaWdodD0iYm9sZCIgbGVuZ3RoQWRqdXN0PSJzcGFjaW5nIiB0ZXh0TGVuZ3RoPSI2IiB4PSI1IiB5PSIyOS44NDM4Ij4mIzE2MDs8L3RleHQ+PHRleHQgZmlsbD0iIzMzRkYwMiIgZm9udC1mYW1pbHk9InNhbnMtc2VyaWYiIGZvbnQtc2l6ZT0iMTIiIGZvbnQtc3R5bGU9Iml0YWxpYyIgZm9udC13ZWlnaHQ9ImJvbGQiIGxlbmd0aEFkanVzdD0ic3BhY2luZyIgdGV4dExlbmd0aD0iMzgwIiB4PSI1IiB5PSI0Mi42ODc1Ij4mbHQ7YiZndDtUaGlzIHZlcnNpb24gb2YgUGxhbnRVTUwgaXMgMzI0IGRheXMgb2xkLCBzbyB5b3Ugc2hvdWxkPC90ZXh0Pjx0ZXh0IGZpbGw9IiMzM0ZGMDIiIGZvbnQtZmFtaWx5PSJzYW5zLXNlcmlmIiBmb250LXNpemU9IjEyIiBmb250LXN0eWxlPSJpdGFsaWMiIGZvbnQtd2VpZ2h0PSJib2xkIiBsZW5ndGhBZGp1c3Q9InNwYWNpbmciIHRleHRMZW5ndGg9IjM3MCIgeD0iNSIgeT0iNTUuNTMxMyI+Jmx0O2ImZ3Q7Y29uc2lkZXIgdXBncmFkaW5nIGZyb20gaHR0cHM6Ly9wbGFudHVtbC5jb20vZG93bmxvYWQ8L3RleHQ+PHJlY3QgZmlsbD0iIzMzRkYwMiIgaGVpZ2h0PSIxOS45ODQ0IiBzdHlsZT0ic3Ryb2tlOiMzM0ZGMDI7c3Ryb2tlLXdpZHRoOjEuMDsiIHdpZHRoPSIxNjYiIHg9IjUiIHk9IjY0LjM3NSIvPjx0ZXh0IGZpbGw9IiMwMDAwMDAiIGZvbnQtZmFtaWx5PSJzYW5zLXNlcmlmIiBmb250LXNpemU9IjE0IiBmb250LXdlaWdodD0iYm9sZCIgbGVuZ3RoQWRqdXN0PSJzcGFjaW5nIiB0ZXh0TGVuZ3RoPSIxNjQiIHg9IjYiIHk9Ijc5LjM3NSI+W0Zyb20gc3RyaW5nIChsaW5lIDIpIF08L3RleHQ+PHRleHQgZmlsbD0iIzMzRkYwMiIgZm9udC1mYW1pbHk9InNhbnMtc2VyaWYiIGZvbnQtc2l6ZT0iMTQiIGZvbnQtd2VpZ2h0PSJib2xkIiBsZW5ndGhBZGp1c3Q9InNwYWNpbmciIHRleHRMZW5ndGg9IjciIHg9IjUiIHk9Ijk4LjM1OTQiPiYjMTYwOzwvdGV4dD48dGV4dCBmaWxsPSIjMzNGRjAyIiBmb250LWZhbWlseT0ic2Fucy1zZXJpZiIgZm9udC1zaXplPSIxNCIgZm9udC13ZWlnaHQ9ImJvbGQiIGxlbmd0aEFkanVzdD0ic3BhY2luZyIgdGV4dExlbmd0aD0iNjQiIHg9IjUiIHk9IjExMy4zNDM4Ij5Ac3RhcnR1bWw8L3RleHQ+PHRleHQgZmlsbD0iIzMzRkYwMiIgZm9udC1mYW1pbHk9InNhbnMtc2VyaWYiIGZvbnQtc2l6ZT0iMTQiIGZvbnQtd2VpZ2h0PSJib2xkIiBsZW5ndGhBZGp1c3Q9InNwYWNpbmciIHRleHQtZGVjb3JhdGlvbj0id2F2eSB1bmRlcmxpbmUiIHRleHRMZW5ndGg9IjE1NiIgeD0iNSIgeT0iMTI4LjMyODEiPmltcG9ydCBzdHJlYW1saXQgYXMgc3Q8L3RleHQ+PHRleHQgZmlsbD0iI0ZGMDAwMCIgZm9udC1mYW1pbHk9InNhbnMtc2VyaWYiIGZvbnQtc2l6ZT0iMTQiIGZvbnQtd2VpZ2h0PSJib2xkIiBsZW5ndGhBZGp1c3Q9InNwYWNpbmciIHRleHRMZW5ndGg9IjkxIiB4PSIxMiIgeT0iMTQzLjMxMjUiPlN5bnRheCBFcnJvcj88L3RleHQ+PCEtLVNSQz1beExsUlJqbDg2UnhOS3lvSTV3NEFjUjREa3NjTHJIUUU4c3lDRTR2V1VSVE82ME9uOGVTSURuSjk5T1VJTFNFbHE4ay1HNS1XanRzbEZhQl9jVTd2ODlBb3gxT0JRSFNNRU9WX0RBVF9sWS1vNWZ4aEtuSEdkLTI1Ukw2NDB0WmZjUnd4STBrcjVQZHdMNFVNUTJwVUQ1NURfNXZLWjlWbmF4dXlaWC1UU0U2amNMMzdZdWlNbkIybVB0YzQ1SXl5ZVVpUnlONldCYm8zczQ2aW50UW5lVjZZTmdmdndoa2g4NU5nMWw2SlhucTMxQ0JfZGo3aG9NWTI1dnZESzBZRGFVdUpXcFpLbWRSRy1zYW9sajdFUnlPVm56VXRic1RONHBIMlpuOWhUSUdEYVVKWDg1WXZsZDRhM0gwbEZTd003YWpGSkZITkpFUzFDYnFWU1VpR1E0T3NkZUJmRkx3V1VUMDB2Qmcxb2Z4S05ydEJLVThORjB0T2pyQWlkMTZnaG1vYkZuM1RWQ0ZvLV8wWVNPZGdfNUpnenVJRWRLZU44Yk43TXVEeVNFcUFPYnhaNVFYQ0hxSDk3T3RpV2NoN0tyYUI5TUNkNV9ldjZWNjBxRDNocEx0UjJnWWJHdlU1Zm1RazdMQkJURzhyQmtfREdOVEdnY001ZVl6S25NdExKejYzcWt5UEZidlBwZ3BPQ0loTXUxTHkwTmlrZEwtOUpqN3ZQQzg3Q1ExaDYtZngwTEtOc0Z6Y2syajd3STd1STlCNGx4emRCU1dGXzFjUU0wdnd2Q19pQ3lOd2p2ZGxYZXZuZUJrc3dtLUhSQnZaX3h0ZEpQeHV0X2JIZmFWU3hDWHl6c3Z3eVp1ZmYtSTE3YzNSY1piM2ZDRGk5TnZRUHhlRUZKM25taEJOR19KY3A4VVBfNlEwMGttNDFwMTdCSkVoSjB0ZVh2MUlycTRfZUFidXM2WmtvVmRQblVkWC13OXpneGI1SUxld1hVYkZlRFhuZExCZldPeURBbW82d0RIeElFaXlSMVdHclk0d0VsR1VxRjVYamV4eDRyWF84cjN4bnhZWXBscFh0NXQyOGp4aW4yYS1GRmJwbmVkRzNyWTUxX0NfWU1JWXUxUDJWVWJ1OEdLVFhoTTRsblBfVW9vdlVtb2NtcW9vWkY5dWpWQnpqQ3hoYXZCTkRLT0RKTFNGV3VuZlJhWFhrZkFRZVFXQVk1M25fVGxDRDhRZkZVMEZlSERXYXNaT2pqc0xEZ1NCVXRKaFhzSkd1bWx0OGRIcWplT0dUUzZhbUJGbjZsUTA2SW0wM3l6OHBvMmNVNU53R291Q0xYMnJnNHFLd09lTG12UjJMUzBLVFUyYVc3Tjk2ZTJSNmxUQ2FOd0FRYzJwMVRhd1dLS0RGZW9hQ0hpcGo3UDNGLWFTb09mdHVoQWlocjREb0E5aFp1b0lKTmszeUFJOTRDdnpxUThybW5NOHZ6R1R0aW1vU29zN29IMTBIVThobkFYcXFoMFRqTFh1NV9VdUh3REhPYjBnQ21maEc4ODAxVzhFTktwOWRPSDNFY1M3Y1d2bFhXSFQ0SGtyS2dUR3J3NVZQM3dBTml0R19Zdm9jN3JXZm9PYlRTSnROTC1IQmZxYlBkQ195U2hEblFuY1hlMWZZRS1Jc0ZEaVBZQkt5eGQyMlpLZXA0b05FUzRtQThocWR0Xy1fVHplbDcxUHN1Q0ZFMjA2LVhtNlM0SlM0RHJUQjhXM2hIMWg1NWFVM3VKYVh1dTRBdTZvVzFWWmJCZkxaWTNobi04Y0tHWVM5MFFNLWtrcTJuNzZQOHVyQUllSWYtTlR1SnJsSW52cXVqNmdWZkFLcDFUY081SkhtUVpveTZwZU9hOW80cGtZc3AxOFNKWV8tWXVSVGpXTDRaNWlDN29ZQnZNMHNFTzBjSndDUkp5XzJLbl8wTDl2WktmVDNOOGh0eVRoMVN4QjFRT1pRSmhwWnFfWTFQN2wwemNWUWpnTWZ5M2gwMXRyU3FyeWFYcFVnWVNDS3JXN1ZLZEZzU3ViRWg2SXlvek5Oc3dxM3BfVTdEX3ktQTZWYnM4NzVBSlN0VVZMTXlvZkczTFhoTWlzaDNMc2MwVHZoeUdreDJFQkpQVG9PcEwtQWxVQXJBZW1WTTRvQWZSd1cwdXNJUld4a2JTVi1pcllyaXJZcmVLbVB0b3JZS2FyYlhYalNoWmFUNE1sMWl6aGxUeWF3a3ZGakk2ZTNLRUpsN0xQTmRhM29zZzA0dTlmazNqSzMtX0g3ejM5U05xbVZNaXN0b0FRTFRzczNVVDZNVGw0aXI3V1ltSEtoNF9PRHlNYzBReno1UW9QT3V5ZUhtRHFTNUhNd2k0TFpUcW1zRE5YWmxVU0JWMjNrNlFlaERCSUFIVktsLXpMVDhPaUpzNmpvZUJQTlc4OTBpa2tuRVIyY1dzR1NkZXVHQVU3VlI3UE43b3ZsaktrUnkta0JpelhvdUJRdXpGSjBPOE1oQzVuTUlXTzZFMGJvSHk5V3pKWkV3UmFsYnk4Sk5HSHVIVUlUM1k0TFVLek85M1VTSXhFcGlVVm52REZza3J1Q1hiVmRUclVWaGFVcjR3NHg0MTRtaEp1M1hIdUgxXzVUZG1LdG5DZUt0WlVFNThFa1RWV0ZWWER2dlItcE80VFVkRzA4VDRqTnhVOTlqQlRxTDZfYk54VFRIcDI0dUhjMnI5ckh1TmpsWWJrNVBpNjE4elQ1ekxGUHpTVmpWQ2xyelZaU25RcUlKVjFMUWtkTmRCWGVBRVgzb2RHS2x0UENlWHhtR3pJMWRNYUhvZEpLZGNVV2d2UEVTNnpXajhHcWt2WUZhbEtjSmYwT3NTNmFzSy1HOXlpbngwNjJFeHhRZkdoMVUwWVA0eWJXSERVTllxRWhmWV9NWEluOVkzcDVnelhUZzM5b1o5ZjhaaDlYUGNyQkJNRHpGMzdjWnBia29ISElKVU8wZm9hVjJGaGFHSF9tMzIzMTFPaTk4c2JiTnBrQzVkWVdlQU1CQW9RNW9TdDZZbVV3bGhoS0o3aFlHb1RxYTlBZG9JTTJGQlFtN0xjR1NPZFE5ckJ3b2xwam9XWE1zN1YwVUZXMWM4Skk1b0hKSFo2WE5KaW1HbVd1ZzhIOXVNY3ZLQ0ZnVC1HdGJWYVdUS1J5c3lYeVRTaUp2Q1VzSjB5ZVNUOHFuRHQySnNBQ05jSVlXZWpudEdMS3ZlR3hFanBYZmNPeERSdW9FS3o1VW5CS0pWTFhVQzVraXFmek9CWHN4VWhyS2U1X3NXdTlJZjR5b3NpY1QyY21MeTJCYlJacWFSTEdYanRLNGN3eHRVQ0t5cnpuMko0TzkxMVVjY0RJcEhNS2RhUi1TVV9xNE5LQTNBeS1XUngybmxUd3lyTnNDcHJiUzBMb0F3SENjUHI2eUptbGY2U25BTEs1OFJiNHFiQUIyeTgtd2pscU1YMjlXQmNuMlVnY2NtTHVOSFhLUXNxTTJReUYxa0lVQU1hRlY4QlhhTUJ4R0oyT19PS2d5cEZPMFJLQmFiZzN1bVJIa1VKZHM2ZnNGYUJSSjllMWdRT2V4T3l4YURxbndfRjBvSTkyNDgxTHlmQTRlRVhDRXZfX3JHWnJXSVhkZzUtMUY1eWtyUG82bGxMbFBZUF9GZUw1UVh3aTlIQXp2OE9aWUtGU0EwN0lndnRsLUFBYWpoNEJieVdDanpibTI3UXFIbHkxYXVaRmNUNzVzbk43SzFFUWYwN3lQOHRrM2dmUXJRSzRyV0JDRHAyY1ZZRHBJb1U2a1RjTTVraThUZXpHUWxEODJ3NHVUa3FZMHI3aE8wUUZaRDhtUkpUTE9fVC1fQzhvNk80ZTByLW1adGl6VTEwMkRkTENhOXlPMGZuak1VVTlzTWRxdHJGZHhrTTdjcTgwSG41Sy1vMzRYa0lkUWR4ZTRZVkdHeHFPRUIwVTMwdVJXekpIT1pjUXVBUHRNWlRDME1kYjd3RnM3YmZZTnFyMXMtYmkxSTlBU2JCVkVtWWh4Mlh6akExaFplV3RIYVJBeFJJLVZIWFlNTzA4WjB4QnlMV2JwdmhjMDJ3OE5WdUcwVWhjam9JS0lUd0F2NjNiLWFwZXhZSWJvcDliSEdNUVF2OFFtRkg5UUNvclBNS2tQb3pnQVVzUEJHM1NjaVpsSU1aNW9NdVBGR0E1NVNUb0hOdkxhenBIVFBqOEJoQUw5VUM2aWFrNk1zV2t3Qi1ET0lOWkRmSU5oTWFidW5vajlVQ09rOUJGQ05LYnRZQm9JeVBqUTJfSEFFZHc5akpPM0FnOHk3SWNZZVFKNFJqWVIyeXNhZW9SQUZ2Q0hyTWlaS1luM0FUU3ZIT2lKbkYzQU1yTFJIT21SeWlDVFJhSmFBRVJOT2dPZUNvSlhLOWlmQVlVZkFpNzg4QWNnbnBGNHhoOHQ1STZPYWNtWW9MTFEzQ0lnUExYb2JNYkgxZG9VOE9IOHpydjljQ2Vrc1dXSzJKS092MmFyNHJZSE9mc242RDlnQ045VEE0LTFQS2NlbWdvSkdQbEdJVDlnRWoyQkxvanFzS2NicDhqYWt6TXpEZzdPV3JDT1VvcjVlb1pST2NydkFYUVEzTnY0dnR5dUhZb3lJZjFTYWNNaVNxTXJMVklTaENmWG5LcXk1MGtOQldNWDFrZWQ0VHZQUUFnWTdUeWZFYUJVck1yUWo0bEVLUlJLLXpvUVlRVjlESDJfZkRIamlIUzc5eHJjR3AxSVV0UHFpUUlCWW9mNHFxTkJOVTNhSVNaN1BEblJNS3M4NkNBcWtpc2xnUS1BRlFtNVBKU1lxWXNxM0FUR25qNnJna09zcFI0N0NsNVRtTXo1b3ZLb1UyaGdmeElqNkxRdFQycWZONWpnVmZ5ZHJ0SkRKOUJQWW9id05nTWJjbUZMZE5CTmdUd0Jma2VaaUlUaUszU1psQUphT3g5a3NZMUV3NVFCaXF4endJazlGSHdyNXRHYlRCeVl4blpCQ0hrT2o0SkxSdTcwZ2x3S2ZIY0xfTVJVQmpZUm9Jc1lPZ0J6elhQc0lVdDZzZDVOSFVudlc5STJ0MV9NTksxVmNOS0tWaU51dWRJV2xHRXRGQnZKWFNUYW1wdTdmRlZrd2R6dG0xVW5ueVp1RmxTVjBPMXR6YklFdXZVRGlVSkZpXzFERVk5ME5MdTZYeDI2cUZlVXFYajNzNGplVkd6WDNRN2FCUkdzWHgyNnJkNDVmQk82bUZTVXFYaFp0NHpNZUdieG8zcHV3NGwzM0dYSWdIQmJHQlRRNVRPYnNfVXAzZ1dYQ1BZMmxYX3EwSEJ6YkFwb29zRGczTHhuTXJjWUhKRWhRaTRvR1hqcU9Zc2NuTzZHSVk3VmdHSG53QWc4Rk9hZklla0RfUWFsb01yMG1wUzVvNl9KbG9aSlgzOHlSRzdMemV0QlNRRzhYQ1ktcUhZOG9HQWxZWDVWSW1CVW9tNHlaWC1OMTNEd1pYc0ozM1JZNjZ0UzBCVFJWVnI1YjhwT1cyanp1TU5pNExrSXg2Ukw2N3ZvQ0VFcU9SVGVHcWw3WVNNbTBHWEh4RkcxX2dhT1VUZTB1NWNUNUYwWGIwN255TGFOYUhYQ3pnTzlrczc3MjhfX3dFN1U1VGlfS0F0RUFyQ09sX0JMd24yd3BZWE4yQTV5Q2U2YXhZdDQ2eEJQQjFWY2UzSXE4YXd0TzROY0gwMjl3OURXOFRUSTE3YTA0dk01Zzh1T3gwcmFEcWZPYWxDTW1WUGlNTUMwTjM1SF9JMU9QQTYyQlpVWHVveVhnZVk4b1lkeGgwWWxTSkM4R1o4TDNSNllfOU9vS1JzUXJkT1lIUnljQ29FZVVhN3JoZWI4eTJtb3B1c0Z0WVhoVlhiMFpXOUREWDZvMmI0dVlveW5feXZ4b3o4TjI1SVVCOHZ2czg2azlId3dLanNvNGtGODhtT0ZwQUk4bk9TYVBFcXkybURjQzdKLTRhQ1RhUDZlX3VWbTQwXS0tPjwvZz48L3N2Zz4=;" vertex="1" parent="1">
            <mxGeometry x="210" y="160" width="394" height="151" as="geometry" />
          </mxCell>
        </UserObject>
      </root>
    </mxGraphModel>
  </diagram>
</mxfile>
